<?xml version="1.0" encoding="UTF-8" standalone="no"?>
<!-- Generator: Adobe Illustrator 26.3.1, SVG Export Plug-In . SVG Version: 6.00 Build 0)  -->

<svg
   version="1.1"
   id="Calque_1"
   x="0px"
   y="0px"
   viewBox="0 0 606.23431 700"
   xml:space="preserve"
   sodipodi:docname="Logo FC Annecy - 2022.svg"
   width="606.23431"
   height="700"
   inkscape:version="1.1.1 (c3084ef, 2021-09-22)"
   xmlns:inkscape="http://www.inkscape.org/namespaces/inkscape"
   xmlns:sodipodi="http://sodipodi.sourceforge.net/DTD/sodipodi-0.dtd"
   xmlns="http://www.w3.org/2000/svg"
   xmlns:svg="http://www.w3.org/2000/svg"><defs
   id="defs907" /><sodipodi:namedview
   id="namedview905"
   pagecolor="#ffffff"
   bordercolor="#666666"
   borderopacity="1.0"
   inkscape:pageshadow="2"
   inkscape:pageopacity="0.0"
   inkscape:pagecheckerboard="0"
   showgrid="false"
   inkscape:zoom="1.325"
   inkscape:cx="161.88679"
   inkscape:cy="199.24528"
   inkscape:window-width="1440"
   inkscape:window-height="900"
   inkscape:window-x="0"
   inkscape:window-y="0"
   inkscape:window-maximized="0"
   inkscape:current-layer="Calque_1" />
<style
   type="text/css"
   id="style824">
	.st0{fill:#E30613;}
	.st1{fill:#FFFFFF;}
</style>
<polygon
   class="st0"
   points="345.9,100.5 172.9,0.6 0,100.5 0,300.2 172.9,400 345.9,300.2 "
   id="polygon826"
   transform="matrix(1.7526289,0,0,1.7526289,0,-1.0515773)" />
<path
   class="st1"
   d="M 526.84026,174.73711 303.20481,45.743615 79.744617,174.73711 c -24.712068,14.19629 -39.95994,40.66099 -39.95994,69.05358 v 212.0681 c 0,28.56785 15.247872,54.85728 39.95994,69.05358 L 211.01652,600.62594 V 579.0686 c 0,-5.60841 -2.97946,-10.69103 -7.71156,-13.31998 L 92.889334,501.95293 c -8.062093,-4.7321 -14.897346,-11.39209 -19.629444,-19.62944 -4.732098,-8.0621 -7.185779,-17.35103 -7.185779,-26.63996 V 243.61542 c 0,-9.28893 2.453681,-18.57786 7.185779,-26.63996 4.732098,-8.06209 11.392088,-14.89734 19.629444,-19.62944 L 303.20481,76.064096 513.52028,197.52128 c 8.06209,4.7321 14.89735,11.39209 19.62944,19.62945 4.7321,8.06209 7.18578,17.35102 7.18578,26.63996 v 212.0681 c 0,9.28893 -2.45368,18.57786 -7.18578,26.63996 -4.73209,8.06209 -11.39208,14.89734 -19.62944,19.62944 l -110.41562,63.7957 c -4.7321,2.8042 -7.71157,7.88683 -7.71157,13.31998 v 21.55733 l 131.44717,-75.88883 c 24.71207,-14.1963 39.95994,-40.66099 39.95994,-69.05358 v -212.0681 c -0.17526,-28.39259 -15.42313,-54.68203 -39.95994,-69.05358 z"
   id="path832"
   style="stroke-width:1.75263" />
<g
   id="g1373"
   transform="matrix(1.7526289,0,0,1.7526289,0,-1.0515773)"><polygon
     class="st1"
     points="139.4,337.9 139.4,340.5 141.9,340.5 141.9,349.3 145.1,349.3 145.1,337.9 "
     id="polygon834" /><path
     class="st1"
     d="m 160.6,337.6 c -3.7,0 -6.5,1.7 -6.5,3.9 0,2.3 2.8,4 6.5,3.8 0.1,0 0.3,0 0.5,0 l -3,4 h 3.8 c 0,0 4.2,-5.5 4.5,-6 0.4,-0.5 0.7,-1.1 0.7,-1.8 0,-2.3 -2.8,-3.9 -6.5,-3.9 z m 0,5.2 c -1.8,0 -3.2,-0.6 -3.2,-1.3 0,-0.7 1.4,-1.3 3.2,-1.3 1.8,0 3.2,0.6 3.2,1.3 0,0.7 -1.4,1.3 -3.2,1.3 z"
     id="path836" /><path
     class="st1"
     d="m 187.3,341.7 c 0,-2.4 -2.6,-4.1 -6,-4.1 -3.4,0 -6,1.7 -6,4.1 h 3.2 c 0,-0.8 1.2,-1.5 2.8,-1.5 1.5,0 2.8,0.7 2.8,1.5 0,1.6 -4.7,3.2 -8.7,4.9 v 2.6 h 12.2 v -2.6 h -7 c 3.6,-1.4 6.7,-2.6 6.7,-4.9 z"
     id="path838" /><polygon
     class="st1"
     points="206.5,337.8 195.7,337.8 195.7,340.5 203,340.5 197.6,349.3 201.1,349.3 206.5,340.5 "
     id="polygon840" /></g>
<g
   id="g870"
   transform="matrix(1.7526289,0,0,1.7526289,0,-1.0515773)">
	<g
   id="g846">
		<path
   class="st1"
   d="m 173,63.4 -8.9,5.1 c -1,0.6 -1.6,1.6 -1.6,2.7 v 8.5 c 0,1.1 0.6,2.1 1.6,2.7 l 8.9,5.1 8.9,-5.1 c 1,-0.6 1.6,-1.6 1.6,-2.7 v -8.5 c 0,-1.1 -0.6,-2.1 -1.6,-2.7 z"
   id="path844" />
	</g>
	<g
   id="g864">
		<g
   id="g850">
			<path
   class="st0"
   d="m 162.6,80 c 0,1 0.5,1.9 1.4,2.3 l 6.5,3.8 v -8 h -7.9 z"
   id="path848" />
		</g>
		<g
   id="g854">
			<path
   class="st0"
   d="m 162.6,71 v 1.9 h 7.9 v -8 l -6.5,3.8 c -0.9,0.5 -1.4,1.3 -1.4,2.3 z"
   id="path852" />
		</g>
		<g
   id="g858">
			<path
   class="st0"
   d="m 182.1,68.7 -6.5,-3.8 v 8 h 7.9 V 71 c 0,-1 -0.5,-1.8 -1.4,-2.3 z"
   id="path856" />
		</g>
		<g
   id="g862">
			<path
   class="st0"
   d="m 175.6,86.1 6.5,-3.8 c 0.8,-0.5 1.4,-1.4 1.4,-2.3 v -1.9 h -7.9 z"
   id="path860" />
		</g>
	</g>
	<g
   id="g868">
		<path
   class="st1"
   d="m 173,64.9 7.8,4.5 c 0.8,0.5 1.4,1.4 1.4,2.4 v 7.4 c 0,1 -0.5,1.9 -1.4,2.4 l -7.8,4.5 -7.8,-4.5 c -0.8,-0.5 -1.4,-1.4 -1.4,-2.4 v -7.4 c 0,-1 0.5,-1.9 1.4,-2.4 l 7.8,-4.5 m 0,-2.7 -1.2,0.7 -7.8,4.5 c -1.6,0.9 -2.5,2.6 -2.5,4.4 v 7.4 c 0,1.8 1,3.5 2.5,4.4 l 7.8,4.5 1.2,0.7 1.2,-0.7 7.8,-4.5 c 1.6,-0.9 2.5,-2.6 2.5,-4.4 v -7.4 c 0,-1.8 -1,-3.5 -2.5,-4.4 l -7.8,-4.5 z"
   id="path866" />
	</g>
</g>
<g
   id="g1363"
   transform="matrix(1.7526289,0,0,1.7526289,0,-1.0515773)"><path
     class="st1"
     d="m 118.1,100.4 c 1,0 2,0.6 2.5,1.5 l 7.7,15.2 H 123 l -1.4,-2.8 h -9.3 l -1.4,2.8 h -5.3 l 8.4,-16.7 z m 1.5,10.1 -2.7,-5.4 -2.7,5.4 z"
     id="path872" /><path
     class="st1"
     d="m 151.4,100.4 v 16.7 h -4.7 l -11.5,-12.2 v 12.2 h -4.7 v -16.7 h 4.5 c 0.8,0 1.5,0.3 2,0.9 l 9.6,10.1 v -11 z"
     id="path876" /><path
     class="st1"
     d="m 176.2,100.4 v 16.7 h -4.7 L 160,104.9 v 12.2 h -4.7 v -16.7 h 4.5 c 0.8,0 1.5,0.3 2,0.9 l 9.6,10.1 v -11 z"
     id="path880" /><path
     class="st1"
     d="m 184.7,104.3 v 2.6 h 10.2 v 3.8 h -10.2 v 2.6 h 11.4 v 3.8 H 180 v -13.9 c 0,-1.5 1.2,-2.8 2.8,-2.8 h 13.4 v 3.8 h -11.5 z"
     id="path884" /><path
     class="st1"
     d="m 219.9,110.7 c -1.1,3.9 -5.5,6.9 -10.7,6.9 -6.1,0 -11,-3.9 -11,-8.7 0,-4.8 4.9,-8.7 11,-8.7 5.2,0 9.6,2.9 10.7,6.8 h -5 c -1,-1.8 -3.2,-3 -5.8,-3 -3.5,0 -6.3,2.2 -6.3,4.9 0,2.7 2.8,4.9 6.3,4.9 2.6,0 4.9,-1.3 5.8,-3.1 z"
     id="path888" /><path
     class="st1"
     d="m 232.5,113 v 4.2 h -4.7 V 113 l -8.1,-12.5 h 3.7 c 1,0 1.9,0.5 2.4,1.4 l 4.3,7.3 5.1,-8.7 h 5.3 z"
     id="path892" /></g>
<g
   id="g1337"
   transform="matrix(1.7526289,0,0,1.7526289,0,-1.0515773)"><g
     id="g902">
	<path
   class="st1"
   d="m 144,240.5 10.6,6.1 v -67.8 h 17.7 c 2.3,0 4.6,-0.9 6.2,-2.6 l 12.4,-12.4 H 154.5 V 148.7 H 206 l 15,-15 h -69.7 v 0 h -19.2 l 4.5,9.1 c 1.7,3.4 2.7,7.1 2.9,10.9 v 11.4 c -11.4,2.5 -21.9,7.9 -30.4,16.1 -5.8,5.5 -10.4,12 -13.5,19.2 -3.3,7.5 -5,15.4 -5,23.6 0,8.2 1.7,16.1 5,23.6 3.2,7.2 7.7,13.6 13.5,19.2 11.8,11.3 28.5,17.9 45.4,17.5 0,-7.3 0,-15 0,-15 -27.4,0.7 -49.1,-20.3 -49.1,-45.3 0,-20.5 14.4,-37.8 34.1,-43.4 V 233 c 0.1,3 1.8,5.9 4.5,7.5 z"
   id="path898" />
	<path
   class="st1"
   d="M 230.8,183.2 C 224.3,176 215,170.7 203.3,167.5 l -12.7,12.7 c 13.1,2.1 23.2,6.5 29,13.1 4.9,5.5 7,12.6 6.1,21 -0.6,5.8 -3.3,10.9 -8.3,15.9 -4.9,4.8 -11.3,8.9 -17.5,12.8 -5.3,3.3 -10.3,6.5 -14.4,10.1 -1.7,1.5 -3.2,2.9 -4.6,4.3 v -67.5 l -12.4,12.4 c -1.7,1.7 -2.6,3.9 -2.6,6.2 v 110.2 l 15,-8.7 v -14.5 c 0.5,-15.3 3.9,-22 14.5,-31.3 3.3,-2.8 7.8,-5.7 12.5,-8.7 5.8,-3.7 12.3,-7.7 17.9,-12.8 V 284 l 10.6,-6.1 c 2.7,-1.6 4.4,-4.5 4.4,-7.6 0,0 0,-54.6 0,-62.3 0,-7.7 -3.9,-17.9 -10,-24.8 z"
   id="path900" />
</g></g>
</svg>
